<svg xmlns="http://www.w3.org/2000/svg" width="198.712" height="43.761" viewBox="0 0 198.712 43.761">
  <g id="logo_vive_energia_white" transform="translate(-667.612 -789.912)">
    <path id="Trazado_721" data-name="Trazado 721" d="M697.034,827.929a13.24,13.24,0,1,1-13.24-13.24c.435,0,.865.022,1.289.062L686.676,812a16.177,16.177,0,1,0,13.18,13.951l-2.848,1.139q.026.415.027.836" transform="translate(0 -12.521)" fill="#fff"/>
    <path id="Trazado_722" data-name="Trazado 722" d="M719.059,789.912s-.346,4.989-.663,6.257c0,0-13.062,7.879-13.69,18.671,0,0,.3-12.154,20.351-20.517a37.185,37.185,0,0,1-2.8,7.122s-15.089,4.7-17.359,13.961c0,0,2.9-11.6,25.721-14.106,0,0-8.622,14.072-22.823,15.485,0,0-2.422,0-2.989-.708,0,0-.99-1.065-.308-5.753.841-5.774,5.8-14.341,14.558-20.413" transform="translate(-21.016)" fill="#fff"/>
    <path id="Trazado_723" data-name="Trazado 723" d="M934.788,837.833a4.048,4.048,0,0,0-1.012-2.123,3.99,3.99,0,0,0-2.777-.84,7.164,7.164,0,0,0-3.035.939,20.316,20.316,0,0,0-3.531,2.817l.682-3.352h-2.9l-3.239,16h2.895l2.072-10.158a20.25,20.25,0,0,1,1.8-1.611,13.514,13.514,0,0,1,1.566-1.073,5.558,5.558,0,0,1,1.254-.548,4.073,4.073,0,0,1,1.077-.156,2.093,2.093,0,0,1,1.385.365,1.689,1.689,0,0,1,.538,1,4.567,4.567,0,0,1-.017,1.571c-.106.63-.224,1.261-.35,1.877l-1.786,8.737h3.056l1.843-8.985c.131-.6.252-1.288.36-2.055a8.294,8.294,0,0,0,.119-2.4" transform="translate(-144.141 -25.781)" fill="#fff"/>
    <path id="Trazado_724" data-name="Trazado 724" d="M1006.7,834.926l1.527-.04-.433,1.667c-.077.332-.161.654-.249.963l-.1.348a3.787,3.787,0,0,0-3.552.8,24.611,24.611,0,0,0-3.08,3.3l-1.9,9.287h-3.041l3.306-15.954h2.881l-.879,4.186.037-.044c.456-.546,1.639-2.215,2.165-2.674a6.38,6.38,0,0,1,3.322-1.844" transform="translate(-188.228 -25.789)" fill="#fff"/>
    <path id="Trazado_725" data-name="Trazado 725" d="M1022.344,858.607a10.04,10.04,0,0,0,2.254.7,13.819,13.819,0,0,0,4.879-.028,8.724,8.724,0,0,0,2.716-1.033,7.965,7.965,0,0,0,2.352-2.089,8.8,8.8,0,0,0,1.688-3.613l3.272-16.52a13.066,13.066,0,0,0-5.6-1.04,11.321,11.321,0,0,0-3.7.6,10.866,10.866,0,0,0-3.11,1.668,9.921,9.921,0,0,0-2.169,2.569,9.022,9.022,0,0,0-1.3,3.2,11.008,11.008,0,0,0-.2,2.96,8.408,8.408,0,0,0,.515,2.886,4.976,4.976,0,0,0,1.56,2.035,4.642,4.642,0,0,0,2.723.78,7.707,7.707,0,0,0,3.353-1.214,15.114,15.114,0,0,0,2.356-1.918l-.542,3.463a9.3,9.3,0,0,1-.872,2.6s-2.287,4.732-9.4.886Zm4.165-13.383a8.036,8.036,0,0,1,.2-2.135,8.218,8.218,0,0,1,.863-2.28,6.178,6.178,0,0,1,1.18-1.781,7.326,7.326,0,0,1,2-1.327,6.556,6.556,0,0,1,2.314-.4,5.748,5.748,0,0,1,1.456.215,4.611,4.611,0,0,1,1.048.459,1.626,1.626,0,0,1,.479.309l.013.014-1.532,7.807a15.228,15.228,0,0,1-2.8,2.242,4.174,4.174,0,0,1-2.18.69c-3.125-.145-3.04-3.812-3.04-3.812" transform="translate(-203.413 -25.839)" fill="#fff"/>
    <path id="Trazado_726" data-name="Trazado 726" d="M1079.276,816.75l-4.708,5.482h-2.354l3.868-5.482Z" transform="translate(-232.009 -15.39)" fill="#fff"/>
    <path id="Trazado_727" data-name="Trazado 727" d="M1064.306,851.153h3.034l3.352-16.447h-3.034Z" transform="translate(-227.474 -25.686)" fill="#fff"/>
    <path id="Trazado_728" data-name="Trazado 728" d="M1098.5,835.936a11.475,11.475,0,0,0-2.3-.723,12.435,12.435,0,0,0-2.9-.24,11.307,11.307,0,0,0-3.71.6,10.984,10.984,0,0,0-3.115,1.746,9.468,9.468,0,0,0-2.182,2.48,8.706,8.706,0,0,0-1.27,3.094,10.484,10.484,0,0,0-.3,2.975,8.33,8.33,0,0,0,.521,2.859,5.522,5.522,0,0,0,1.681,2.259c1.549,1.088,3.452,1.012,5.891-.416a27.851,27.851,0,0,0,2.6-2.1l-.595,2.841h2.941l3.112-15.211Zm-4.558,9.93s-2.936,3.392-5.157,3.095-2.856-2.341-2.8-3.987.456-5.574,3.809-7.2c0,0,3.392-1.449,5.574.555Z" transform="translate(-238.028 -25.84)" fill="#fff"/>
    <path id="Trazado_729" data-name="Trazado 729" d="M1126.948,840.537v-1.869h.794a1.358,1.358,0,0,1,.436.051.428.428,0,0,1,.217.179.535.535,0,0,1,.081.294.5.5,0,0,1-.123.347.593.593,0,0,1-.37.173.877.877,0,0,1,.2.157,2.111,2.111,0,0,1,.215.3l.229.365h-.451l-.273-.407a2.545,2.545,0,0,0-.2-.275.291.291,0,0,0-.113-.078.624.624,0,0,0-.19-.021h-.076v.78Zm.378-1.079h.279a1.46,1.46,0,0,0,.339-.023.2.2,0,0,0,.106-.079.246.246,0,0,0,.039-.141.222.222,0,0,0-.051-.152.232.232,0,0,0-.142-.073c-.03,0-.123-.006-.276-.006h-.294Z" transform="translate(-263.395 -27.958)" fill="#fff"/>
    <path id="Trazado_730" data-name="Trazado 730" d="M1126.321,840.194a1.932,1.932,0,1,1,1.931-1.932,1.933,1.933,0,0,1-1.931,1.932m0-3.387a1.455,1.455,0,1,0,1.455,1.455,1.457,1.457,0,0,0-1.455-1.455" transform="translate(-261.928 -26.618)" fill="#fff"/>
    <path id="Trazado_731" data-name="Trazado 731" d="M765.831,839.237l1.252-2.268a1.963,1.963,0,0,1,1.717-1.014h2.048l-2.631,4.483q-.834,1.442-1.75,2.986t-1.8,3.032c-.589.995-1.173,1.963-1.737,2.878s-1.087,1.756-1.558,2.506l-.117.042H758.6l-2.717-15.927h3.1l1.945,13.282s3.009-6.538,4.9-10" transform="translate(-50.616 -26.403)" fill="#fff"/>
    <path id="Trazado_732" data-name="Trazado 732" d="M822.055,839.237l1.252-2.268a1.964,1.964,0,0,1,1.718-1.014h2.048l-2.63,4.483q-.834,1.442-1.75,2.986t-1.8,3.032c-.589.995-1.173,1.963-1.737,2.878s-1.088,1.756-1.558,2.506l-.117.042h-2.662l-2.716-15.927h3.1l1.945,13.282s3.009-6.538,4.9-10" transform="translate(-82.856 -26.403)" fill="#fff"/>
    <path id="Trazado_733" data-name="Trazado 733" d="M790.2,851.883h3.034l3.352-15.927h-3.034Z" transform="translate(-70.293 -26.403)" fill="#fff"/>
    <path id="Trazado_734" data-name="Trazado 734" d="M802.76,820.428a2.039,2.039,0,1,1-2.039-2.038,2.039,2.039,0,0,1,2.039,2.038" transform="translate(-75.159 -16.33)" fill="#fff"/>
    <path id="Trazado_735" data-name="Trazado 735" d="M894.508,842.839a4.043,4.043,0,0,0,2.635-4.847c-.706-3.138-4.457-2.991-4.457-2.991a8.384,8.384,0,0,0-3.461.7,9.545,9.545,0,0,0-2.738,1.843,10.209,10.209,0,0,0-1.948,2.6,11.331,11.331,0,0,0-1.073,2.969,11.074,11.074,0,0,0-.189,3.266,6.945,6.945,0,0,0,.839,2.743,5.038,5.038,0,0,0,1.919,1.914,5.876,5.876,0,0,0,2.937.693,8.259,8.259,0,0,0,3.657-.859,12.433,12.433,0,0,0,2.806-1.761l.147-.139.245-2.194-.237.188a16.06,16.06,0,0,1-2.739,1.69,6.785,6.785,0,0,1-2.877.583,3.572,3.572,0,0,1-2.007-.613,3.413,3.413,0,0,1-1.125-1.337,4.166,4.166,0,0,1-.43-1.691,11.226,11.226,0,0,1,.047-1.681c5.773.11,8.048-1.082,8.048-1.082m-4.91-5.067a4.484,4.484,0,0,1,3.61-.278,2.143,2.143,0,0,1,.737,3.15c-1.307,1.91-7.152,1.5-7.152,1.5a5.934,5.934,0,0,1,2.8-4.377" transform="translate(-123.641 -25.854)" fill="#fff"/>
    <path id="Trazado_736" data-name="Trazado 736" d="M971.469,842.839a4.042,4.042,0,0,0,2.635-4.847c-.706-3.138-4.456-2.991-4.456-2.991a8.384,8.384,0,0,0-3.461.7,9.536,9.536,0,0,0-2.738,1.843,10.2,10.2,0,0,0-1.948,2.6,11.3,11.3,0,0,0-1.073,2.969,11.071,11.071,0,0,0-.189,3.266,6.957,6.957,0,0,0,.839,2.743A5.05,5.05,0,0,0,963,851.04a5.879,5.879,0,0,0,2.937.693,8.26,8.26,0,0,0,3.657-.859,12.427,12.427,0,0,0,2.805-1.761l.148-.139.245-2.194-.237.188a16.1,16.1,0,0,1-2.739,1.69,6.785,6.785,0,0,1-2.877.583,3.571,3.571,0,0,1-2.007-.613,3.407,3.407,0,0,1-1.125-1.337,4.151,4.151,0,0,1-.431-1.691,11.12,11.12,0,0,1,.047-1.681c5.772.11,8.047-1.082,8.047-1.082m-4.909-5.067a4.482,4.482,0,0,1,3.609-.278,2.143,2.143,0,0,1,.738,3.15c-1.307,1.91-7.152,1.5-7.152,1.5a5.933,5.933,0,0,1,2.806-4.377" transform="translate(-167.772 -25.854)" fill="#fff"/>
    <path id="Trazado_737" data-name="Trazado 737" d="M857.676,842.839a4.042,4.042,0,0,0,2.635-4.847c-.706-3.138-4.456-2.991-4.456-2.991a8.386,8.386,0,0,0-3.461.7,9.532,9.532,0,0,0-2.737,1.843,10.2,10.2,0,0,0-1.949,2.6,11.33,11.33,0,0,0-1.073,2.969,11.045,11.045,0,0,0-.188,3.266,6.929,6.929,0,0,0,.839,2.743,5.04,5.04,0,0,0,1.919,1.914,5.879,5.879,0,0,0,2.937.693,8.258,8.258,0,0,0,3.657-.859,12.423,12.423,0,0,0,2.805-1.761l.148-.139.245-2.194-.238.188a16.073,16.073,0,0,1-2.739,1.69,6.784,6.784,0,0,1-2.876.583,3.573,3.573,0,0,1-2.007-.613,3.407,3.407,0,0,1-1.125-1.337,4.138,4.138,0,0,1-.43-1.691,11.154,11.154,0,0,1,.047-1.681c5.772.11,8.047-1.082,8.047-1.082m-4.909-5.067a4.483,4.483,0,0,1,3.609-.278,2.143,2.143,0,0,1,.737,3.15c-1.307,1.91-7.151,1.5-7.151,1.5a5.935,5.935,0,0,1,2.805-4.377" transform="translate(-102.521 -25.854)" fill="#fff"/>
  </g>
</svg>
