<svg xmlns="http://www.w3.org/2000/svg" height="800" width="1200" version="1.0" viewBox="-699.1635 -687.178 6059.417 4123.068"><path d="M2213.52 805.414c27.179 1.371 54.482 2.743 81.661 2.12 18.826-.5 37.527.872 56.353 1.495 33.912.998 67.823 1.995 101.734 2.37 13.34.124 26.182 3.49 39.522 3.24 9.974-.124 19.948.624 29.922.624 7.73 0 8.727-1.745 6.483-8.977-1.247-4.114-3.242-7.979-5.61-11.594-17.829-27.678-41.268-49.371-70.566-64.457-21.195-10.971-43.76-15.335-67.573-12.093-17.829 2.493-35.782 2.244-53.735 3.615-57.974 4.489-116.072 7.48-174.17 10.722-42.14 2.37-84.28 5.237-126.295 7.855-43.138 2.618-86.275 5.36-129.412 7.979-57.35 3.366-114.825 6.483-172.175 9.85-10.972.623-21.818 1.745-32.79 2.617-1.995.125-3.99.374-5.984.499-11.595.25-12.966-.623-15.709-11.72-6.483-26.181-12.343-52.363-13.34-79.417-.998-24.685.997-48.997 5.36-73.558 5.736.499 8.354 4.863 11.47 7.98 33.788 33.163 72.312 59.47 115.574 78.544 14.587 6.483 29.548 11.595 45.132 15.335 13.465 3.242 23.314-1.247 31.044-12.093 19.075-26.805 38.4-53.485 57.6-80.166 10.223-14.337 20.446-28.675 30.545-43.137 78.295-111.833 158.585-222.294 237.878-333.38 53.111-74.43 106.347-148.611 159.583-223.042 6.234-8.727 6.733-8.727 12.094-.623 73.682 110.212 147.49 220.424 221.172 330.636 50.244 75.179 100.612 150.233 150.856 225.287 55.48 82.784 110.835 165.692 166.44 248.476 19.2 28.675 31.792 60.467 42.763 93.007 24.312 72.31 34.161 146.866 29.673 222.917-6.857 117.194-39.273 226.658-106.97 323.156-91.013 129.786-213.693 214.44-369.161 250.222-60.467 13.838-121.558 16.581-183.272 12.342-50.243-3.49-99.365-13.215-147.739-27.054-7.106-1.995-14.213-3.242-21.568-3.242-157.589.998-315.177 1.87-472.765 2.743-111.085.624-222.045.998-333.13 2.12-51.74.498-103.604 1.62-155.344.498-3.491-.124-7.356.873-10.722-2.244 2.992-7.106 7.854-13.09 11.72-19.574 5.36-8.851 11.095-17.454 16.332-26.181 3.99-6.608 9.226-9.725 17.205-9.475 46.13 1.87 92.383 3.49 138.513 5.111 23.314.873 46.503 1.746 69.817 2.494 55.48 1.62 110.96 3.117 166.44 4.862a116595.5 116595.5 0 01297.972 10.099c73.06 2.493 146.119 5.236 219.302 7.854 1.621 0 3.367.25 4.987.125 6.982-.125 7.73-.873 8.478-8.104v-.997c.25-26.68 4.862-52.862 10.348-78.92.374-1.87.624-3.864.998-5.734-2.619-1.995-5.361-1.247-7.98-1.122-66.451 1.62-132.902 4.862-199.23 7.73-37.152 1.496-74.43 2.867-111.583 4.363-83.656 3.242-167.437 6.483-251.094 9.725-39.895 1.496-79.667 2.992-119.562 4.488-62.462 2.493-124.924 4.987-187.386 7.356-8.852.374-17.704 0-26.805 0-.124-4.24 2.618-6.857 4.738-9.725 17.205-23.688 34.66-47.127 51.74-70.815 4.737-6.608 10.098-9.6 18.451-8.852 16.831 1.62 33.787 2.618 50.618 3.117 14.213.374 28.55-.25 42.764.499 37.526 2.12 75.053 3.366 112.58 4.488 13.964.374 27.678 2.369 41.642 2.868 13.59.498 27.179-.125 40.768.623 39.522 2.12 79.044 3.117 118.565 4.738 58.099 2.368 116.197 4.862 174.42 7.23 37.527 1.497 75.054 2.993 112.58 4.364 44.135 1.746 88.395 3.366 132.53 5.112 7.978.25 9.724-.374 11.22-6.608 6.857-28.426 16.332-56.103 27.678-83.033.748-1.745 1.122-3.74 1.995-6.857-285.38 12.343-569.887 22.69-853.895 35.657-2.493-3.616-.124-5.61 1.372-7.605 18.7-25.434 37.651-50.743 56.228-76.176 3.74-5.112 8.602-6.608 14.711-6.359 26.93 1.247 53.86 2.12 80.665 3.242 20.945.872 41.89 1.995 62.71 2.743 62.463 2.368 124.924 4.488 187.386 6.857 90.638 3.366 181.401 6.732 272.04 10.098l163.448 5.985c7.355.25 14.586.997 21.942 1.496 6.857.498 11.47-2.369 14.088-8.727 10.598-25.31 26.057-47.75 41.143-70.441 1.87-2.743 3.615-5.61 5.236-8.478.499-.748.374-1.87.873-4.364-278.772 10.099-557.045 20.447-835.442 30.545-.624-5.111 2.244-7.355 3.99-9.974 17.329-24.062 34.783-47.874 51.864-71.937 5.111-7.23 11.345-10.223 20.321-9.724 36.53 1.995 73.06 3.615 109.59 5.236 78.42 3.242 156.715 6.359 235.135 9.6 39.522 1.62 79.043 2.992 118.565 4.738 70.067 2.992 140.134 6.233 210.201 9.226 33.911 1.496 67.823 2.493 101.61 3.864 6.732.25 11.22-3.116 15.085-7.979 16.208-20.322 33.787-39.272 52.114-57.724 5.361-5.486 10.847-10.722 16.208-16.208 2.493-2.493 4.613-5.36 6.732-7.979-2.369-2.992-4.862-1.62-6.982-1.496-48.872 1.62-97.62 3.242-146.492 4.987-79.417 2.868-158.835 5.984-238.128 8.977-44.883 1.62-89.64 3.117-134.523 4.737-86.649 3.117-173.422 6.234-260.071 9.35-19.948.749-39.896 1.497-59.844 2.12-1.371 0-2.618.125-3.99.125-4.238-.374-5.36-1.995-2.867-5.735 4.24-6.358 8.852-12.467 13.34-18.576 7.73-10.348 7.73-10.224 0-20.572-7.605-10.098-15.21-20.197-22.566-30.42-2.743-3.865-6.483-6.608-9.849-9.725-1.87-1.745-3.99-4.239-2.743-6.982 1.122-2.618 4.114-1.496 6.234-1.371 25.309.873 50.493 1.745 75.802 2.743 20.945.873 41.766 2.12 62.711 2.867 43.885 1.621 87.646 2.993 131.531 4.738 18.328.748 36.53 2.244 54.857 1.87 3.117 0 6.857 1.372 8.977-2.493.623-.998 1.994-1.372 2.493-.873 5.486 6.234 12.592 2.618 18.701 2.867 77.423 3.367 154.721 6.359 232.144 9.476 36.53 1.496 73.06 2.867 109.589 4.363 28.55 1.122 57.225 1.621 85.65 3.74 19.575 1.497 39.149.873 58.598 2.37 21.194 1.62 42.514 1.37 63.584 3.24 7.355.624 13.59-.623 19.823-4.612 24.685-16.208 52.363-24.187 81.163-28.426 43.511-6.358 86.274-2.369 128.165 10.223 17.08 5.112 32.914 14.213 46.878 25.683 6.981 5.735 14.088 7.605 22.815 7.356 28.301-.748 56.477-1.122 84.778-1.371 14.338-.125 28.55.374 42.888.374 10.473 0 11.096-.374 12.717-10.847 3.99-26.306 5.237-52.862 4.613-79.542-.125-8.229-1.496-9.6-9.35-9.226-36.156 1.995-72.436.125-108.716 2.369-8.977.498-17.954.498-26.93.623l-268.174 4.862c-31.917.624-63.834.998-95.75 1.87-77.423 1.87-154.846 2.494-232.269 4.489-94.752 2.369-189.38 3.865-284.132 5.735-60.467 1.247-120.934 2.369-181.526 3.74-50.244.997-100.363 2.12-150.607 3.242-2.992.124-5.984-.125-8.976.124-4.987.374-7.98-1.496-9.725-6.483-9.724-27.303-17.08-55.355-19.574-84.155-1.87-21.32-4.114-42.763-1.87-64.332 1.122-11.096 2.618-22.192 3.865-32.79 3.491-1.246 4.738.873 5.985 2.12 28.176 28.426 61.963 48.997 96.747 67.948 19.574 10.597 39.896 19.698 60.467 28.176 13.963 5.735 28.55 8.478 43.76 8.727 52.24 1.122 104.353 2.244 156.467 3.74 87.022 2.619 174.17 4.364 261.192 6.234 77.05 1.621 154.223 3.865 231.271 5.735 81.787 1.995 163.448 3.99 245.235 5.985l247.229 5.984c9.6.25 19.324.748 28.924.997 8.478.25 8.478-.249 8.977-8.976.25-5.486-1.621-10.348-2.618-15.584-1.746-9.85-3.117-19.699-5.61-29.299-2.868-10.971-6.484-21.569-10.224-32.29-2.369-6.608-6.234-9.351-13.465-9.102-21.569.748-43.137 1.247-64.83 1.621-105.35 1.745-210.7 3.242-316.175 4.987-76.799 1.247-153.598 2.618-230.398 3.865-80.165 1.371-160.206 2.618-240.372 3.99-75.428 1.246-150.856 2.618-226.408 3.989-36.53.623-73.184.997-109.714 1.995-7.979.25-12.841-2.369-17.579-8.603-16.332-21.818-27.677-46.005-35.781-71.937-2.494-8.104-.998-10.098 7.73-9.974 14.586.25 29.298 1.496 43.885 1.247 29.174-.374 57.973 4.364 87.023 5.486 22.192.872 44.508.623 66.7 1.745 28.177 1.496 56.478 2.369 84.654 3.616 31.169 1.371 62.462 2.368 93.63 3.49 13.964.5 27.803.125 41.766-.498 19.2-.873 38.525.873 57.725 1.496 35.906 1.247 71.687 2.618 107.594 3.865 30.919 1.122 61.713 2.493 92.633 3.49 9.1.375 18.202 0 27.303 0 .125-.623.374-1.37.499-1.994-31.418-17.205-62.836-34.535-94.13-51.74.25-.623.375-1.371.624-1.995 10.473-.498 20.82-1.122 31.293-1.371 37.527-.997 75.054-1.746 112.706-2.743 19.325-.499 38.524-.997 57.849-1.62 12.717-.375 25.309.872 37.776 1.994 22.94 2.244 37.901 14.462 44.509 36.654 1.62 5.361 2.618 10.972 4.239 16.333 4.363 14.587 8.976 17.953 24.311 18.202 59.22.873 118.316 1.496 177.537 2.618 41.267.748 82.41 1.87 123.676 2.743 2.619 0 5.361.998 8.104-1.745.125-2.743-2.12-4.863-3.74-7.231-21.943-32.79-50.867-57.6-85.651-75.927-12.592-6.608-25.683-12.468-38.774-18.078-6.608-2.867-13.215-3.74-20.446-3.366-36.904 1.87-73.683 3.615-110.587 5.112-80.664 3.366-161.453 6.483-242.117 9.724-41.143 1.62-82.41 2.992-123.552 4.613-79.667 3.117-159.459 6.234-239.126 9.35-39.147 1.497-78.42 2.993-117.567 4.489-78.42 3.117-156.716 6.234-235.136 9.35-6.359.25-12.592.5-18.95.624-7.855.125-8.479-.374-9.725-7.855-3.242-19.698-4.863-39.521-4.738-59.594.125-14.96 1.372-29.922 3.491-44.633.374-2.743-.623-6.483 3.242-7.605 3.49-.873 5.36 1.994 7.355 4.114 22.068 22.815 46.753 42.264 73.932 58.846 22.94 13.964 47.376 23.813 73.309 30.42 3.49.873 7.106 1.995 10.597.375 1.371-3.491-1.247-5.61-2.743-8.104-7.356-12.218-14.462-24.686-20.446-37.652-1.123-2.369-2.245-4.862-2.993-7.356-2.244-6.981-1.371-8.477 5.86-8.602 11.345-.125 22.566.25 33.911.623 46.255 1.247 92.384 2.37 138.514 3.616 94.752 2.618 189.38 5.36 284.132 8.104 3.242.124 6.608-.125 9.85-.125 15.335 1.745 30.67.374 45.88.748 3.366 0 5.735-.748 7.73.873z" fill="#cb2a2f"/><path d="M968.023 2481.41c-4.239.374-5.36 3.242-5.36 6.982 0 26.556-.375 53.236.373 79.792.374 15.958 10.598 25.558 26.431 27.179 3.99.374 7.98.374 11.97.374h514.655c21.319-.374 32.664-11.47 33.163-32.54.125-7.356.125-14.587.125-21.943v-466.78c0-13.964 0-13.84 13.464-13.84 51.49-.124 103.106.125 154.597-.498 23.438-.25 42.763 7.854 58.721 24.685 10.348 10.847 18.95 23.065 26.93 35.782 36.405 58.347 68.072 119.438 99.49 180.528 30.67 59.72 60.841 119.563 95.5 177.163 7.356 12.218 14.961 24.436 22.442 36.53 1.247 1.994 2.493 3.989 3.99 5.734 3.49 3.865 5.734 3.865 8.851-.25 1.995-2.617 3.491-5.61 5.112-8.477 72.934-129.287 144.622-259.323 216.435-389.358 4.862-8.727 9.973-17.205 15.584-25.558 15.958-23.688 37.527-36.654 66.825-36.28 31.293.374 62.462 0 93.755 0h56.852c10.971 0 11.096.124 11.096 11.22v659.278c0 13.465 0 13.465-13.84 13.465h-145.619c-8.727-.25-9.849-1.372-10.098-9.725-.125-2.369 0-4.613 0-6.982v-370.033c0-3.615.872-7.231-.998-11.345-3.865 1.371-5.111 4.987-6.732 7.854-66.825 120.934-133.526 241.868-200.352 362.802-2.992 5.486-6.857 10.598-10.223 15.959-4.613 7.48-11.72 10.472-20.072 11.096-3.99.25-7.98.25-11.97.374-33.537 0-67.199-.873-100.736.374-19.2.748-31.418-6.733-40.02-23.065-14.213-26.68-29.174-52.987-43.761-79.418-50.867-92.508-101.735-185.14-152.602-277.65-2.493-4.612-4.613-9.474-7.106-14.087-.499-1.122-.873-2.743-2.618-2.494-1.746.374-2.868 1.746-2.992 3.366-.25 1.995-.125 3.99-.125 5.985 0 110.087-.25 220.05.25 330.137.124 22.442-9.85 37.777-27.18 50.12-5.86 4.114-12.218 6.607-19.449 6.981-8.353.374-16.582.997-24.935 1.122-63.21.125-126.295 0-189.505 0-55.23 0-110.336-.25-165.567.25-98.991 1.122-198.108.498-297.099.748-48.872.124-97.745.124-146.617.249-10.348 0-20.571-.499-30.296-4.613-21.32-9.226-32.79-25.184-34.036-48.374-.374-6.607-.125-13.34-.125-19.948v-544.577c0-5.61.374-11.345.25-16.956-.748-25.433 23.563-49.62 49.37-50.867 22.317-.997 44.51-.748 66.826-.748 169.557.125 339.114.25 508.671.499 18.452 0 16.582-1.496 16.582 16.582.125 41.89 0 83.78 0 125.671v1.995c0 12.717 0 12.717-12.343 12.717-29.298.125-58.472.125-87.77.25-111.085.249-222.045.373-333.13.623-4.987 0-9.974-.125-14.961.498-14.213 1.87-23.19 11.844-23.563 26.182-.5 23.937-.998 47.875-1.372 71.812-.125 4.24-.748 8.852 3.616 11.72 3.865 1.745 7.854.872 11.844.872h394.843c11.22 0 11.22 0 11.22 11.346v129.661c0 3.242.749 6.608-.747 9.85-2.868 1.37-5.86.747-8.852.747H977c-2.992 0-5.984.5-8.977-.748zm2975.477 9.102c-.623.997-3.117.748-2.244 2.368.998 1.995 2.743 3.74 4.239 5.486 24.686 29.174 49.745 58.098 74.056 87.646 7.855 9.6 16.582 13.964 29.05 13.839 31.542-.499 63.21-.125 94.752-.25 11.096 0 10.099-.124 10.223 9.351.25 43.262.5 86.4.748 129.661 0 9.725-.374 10.099-10.098 10.099H3954.72c-6.608 0-13.216-.873-19.823-1.371-13.59-1.122-23.688-7.73-32.166-17.829-18.078-21.693-36.031-43.511-54.109-65.205l-85.277-102.856c-1.87-2.244-3.242-5.111-7.107-6.109-4.613 4.738-9.6 9.6-14.088 14.836-17.33 20.572-35.158 40.769-51.49 62.213-17.829 23.439-36.904 46.005-55.106 69.07-6.483 8.228-13.84 15.958-20.198 24.311-11.47 15.086-27.428 20.073-45.381 20.945-5.61.25-11.345 0-16.956 0h-843.67c-11.346 0-22.317-.748-33.413-3.74-26.805-7.231-45.133-28.924-46.629-56.602-.124-2.369-.124-4.613-.124-6.982.124-181.775.374-363.675-.499-545.45-.125-13.964 2.493-27.179 9.85-39.023 13.713-21.943 33.661-34.16 59.469-34.16 91.76-.125 183.52.373 275.156.498 51.865.125 103.73 0 155.594 0 43.511 0 87.147.125 130.658.125h4.987c8.104.249 8.353.498 8.478 8.478.125 5.984 0 11.968 0 17.953-.125 31.542-.499 63.21 0 94.752.125 8.852 1.496 17.828 1.247 26.805-.125 2.244.623 4.738-1.122 6.608-10.348 2.244-20.82 1.745-31.293 1.745-135.147 0-270.17 0-405.317.125-4.862 0-10.098-1.62-14.337 2.244-3.242 1.62-6.359 3.366-9.6 4.987-12.717 6.608-20.447 16.831-21.32 31.418-1.37 22.192-.872 44.509-.747 66.825 0 6.608 1.87 7.73 9.849 7.855 23.314.124 46.503 0 69.817 0 86.026-.125 172.176-.374 258.201-.499 22.317 0 44.509-.25 66.825-.25 10.722 0 10.972.25 10.972 11.346v134.649c0 4.363-1.621 6.981-6.483 6.607-2.619-.25-5.361 0-7.98 0-128.29-.125-256.58-.25-384.87-.499-16.705 0-14.96-.374-14.96 15.335-.125 20.946.374 41.89-.125 62.836-.498 19.574 12.094 33.662 30.92 36.53a146.184 146.184 0 0020.82 1.496c179.157-.624 358.314-1.122 537.346-1.746 33.912-.124 67.823-.374 101.735.125 14.462.25 25.433-4.987 34.66-15.958 30.544-36.405 61.463-72.56 92.258-108.592 12.467-14.586 25.932-28.425 37.402-43.885 9.725-13.09 9.85-19.574-.872-31.792-46.005-52.363-92.26-104.602-138.389-156.84-1.496-1.746-3.366-3.242-4.862-4.987-10.473-11.47-22.94-16.457-38.899-15.834-27.179 1.122-54.482.374-81.786.374-2.493 0-5.36.873-7.356-1.745 10.847-1.995 21.694-.748 32.54-.873 23.938-.25 47.875-.125 63.46-.125-26.431.748-61.34-1.37-96.124.873-4.115-3.117-3.117-7.73-3.117-11.844 0-44.509.124-89.142.25-133.65 0-10.1.124-10.224 9.848-10.224h159.584c16.581 0 31.293 5.361 44.633 14.836 7.73 5.361 14.337 11.969 20.446 18.95 16.956 19.076 33.787 38.525 49.62 58.473 18.577 23.439 38.525 45.63 56.977 69.194 12.841 16.457 26.68 32.29 40.145 48.374 1.87 2.244 3.74 4.613 5.86 6.857 6.109 6.608 8.228 6.732 14.337-.374 13.84-16.083 26.93-32.914 41.268-48.623 14.088-15.46 27.303-31.667 40.893-47.626 20.197-23.812 40.145-47.875 60.217-71.687 10.348-12.219 22.192-22.94 35.159-32.291 12.716-9.226 26.93-14.213 42.763-14.213h150.606c9.226 0 10.1.873 10.1 10.473 0 46.503-.126 93.131-.126 139.635-2.992 2.493-6.483 2.992-10.223 2.992h-87.397c-.997 0-2.119.125-2.119.125 27.553 0 55.979 0 84.404.124 3.491 0 7.232-1.246 10.598 1.247.124 1.122 3.366 2.244.25 3.491-1.497.499-3.242.125-4.988.125-28.55 0-57.1.124-85.776-.25-11.969-.124-20.82 4.24-28.3 13.465-11.097 13.59-23.315 26.182-34.41 39.896-35.533 43.885-72.561 86.524-108.343 130.035-8.478 10.348-8.478 12.592.25 23.19 11.719 14.462 23.812 28.55 35.656 42.888 2.743 3.366 5.486 6.732 7.73 10.348 1.995 3.117 3.491 5.984 8.104 5.36 1.87-.249 2.867 2.494 4.114 3.99zM.925 2403.489c0-65.454.623-130.908-.25-196.487-.498-42.264 0-84.404-.124-126.544 0-3.99-.25-7.98-.499-11.969-.374-4.114 1.247-6.109 5.486-6.109 7.356 0 14.587-.374 21.942-.374 133.651 0 267.302 0 400.828-.125 64.208 0 128.29-.249 192.497-.498 11.096 0 21.943.872 31.917 6.109 20.197 10.472 31.792 26.68 33.163 49.62.25 2.992.125 5.984.125 8.977v356.942c0 11.346-.623 22.566-4.613 33.413-4.114 10.971-11.345 19.2-20.571 26.181-12.592 9.476-26.556 12.343-42.015 12.343-129.662-.124-259.323-.124-388.86-.124h-2.992c-9.475-.25-10.098-.748-10.098-10.473v-141.63c0-11.595.124-11.72 11.594-11.72 82.41.125 164.82.25 247.354.25 4.613 0 9.35.125 13.964-.125 14.587-.873 21.942-8.104 22.067-22.815.25-40.893.25-81.787 0-122.68-.125-17.205-9.475-26.057-26.93-26.057-69.817 0-139.635.125-209.452.125h-93.755c-12.593 0-12.593.125-12.593 12.717.125 125.297.374 250.595.624 375.893l.374 129.661c0 8.478 0 8.603-8.603 8.603H9.901c-9.475 0-9.475-.125-9.475-10.099v-333.005h.499z" fill="#008b52"/><path d="M4661 2579.155c2.37 88.519-69.318 166.814-165.193 167.562-96.996.748-173.172-73.433-171.8-167.936 1.37-101.61 78.793-169.308 169.806-169.308 97.869-.124 170.18 80.166 167.188 169.682z" fill="#626f77"/><path d="M2822.055 2220.218c.125-2.743 1.496-4.24 4.364-4.24h8.976c140.882 0 281.764 0 422.646.125 6.358 0 12.218.125 14.337-7.979.25 2.743.375 5.486.624 8.229-.499 2.369-2.12 3.117-4.364 3.241-2.618.125-5.36 0-7.979 0h-398.708c-13.34-.124-26.68.25-39.896.624z" fill="#077d4e"/><path d="M1383.812 2481.41c0-45.88-.124-91.76-.124-137.64 0-13.216.623-12.218-12.593-12.218-130.908 0-261.94 0-392.848-.125-3.865 0-7.98 1.496-11.346-1.87 3.616-.125 7.356-.25 10.972-.25h394.719c14.462 0 13.464-.997 13.464 13.466 0 40.893.125 81.786-.124 122.554-.125 5.361 1.62 11.096-2.12 16.083z" fill="#198d5d"/><path d="M968.023 2481.41c3.367-.124 6.608-.374 9.974-.374h396.839c2.992 0 5.984.125 8.976.25-2.867 2.493-6.358 1.246-9.6 1.246-132.529.125-265.057.125-397.586 0-2.868.125-5.86.998-8.603-1.122z" fill="#198d5d"/><path d="M4149.088 2218.098h-98.368c3.117-3.117 6.483-2.244 9.725-2.244 22.94-.125 45.88 0 68.695 0 8.229 0 16.582.624 24.686-1.995 1.496 4.738-2.37 3.74-4.738 4.24z" fill="#077e4e"/><path d="M2213.52 805.414c-17.58.25-35.034.872-52.488-1.621 32.166.623 64.207-3.366 96.373-2.244 1.247 0 2.618-.25 4.862 1.995-13.465 0-25.932-.125-38.275 0-3.49.124-7.356-1.247-10.472 1.87z" fill="#f9e8e9"/><path d="M1874.53 672.51c-.125 2.245-1.122 3.242-2.867 3.367-.374 0-.998-.748-.998-1.247 0-1.745.998-2.992 2.618-3.49.873-.25 1.247.748 1.247 1.37z" fill="#dd7679"/><path d="M3943.376 2490.76v.5c0-.25.124-.374.124-.624 0-.124-.125.125-.125.125z" fill="#008b52"/><path d="M2766.7 1206.865c16.207-.748 32.415-1.62 48.747-2.244 9.226-.374 9.974.623 7.231 9.475-8.353 27.553-21.818 52.488-39.023 75.553-1.995 2.618-3.865 5.485-6.234 7.73-3.74 3.74-6.483 3.74-10.223 0-2.12-2.12-3.865-4.613-5.36-7.107-16.084-25.06-31.917-50.493-51.117-73.433-.873-.997-1.621-2.12-2.244-3.242-1.247-2.618-.748-4.613 2.493-4.737 4.613-.25 9.226-.25 13.964-.499 13.963-.623 27.802-1.247 41.765-1.87v.374z" fill="#fff"/><path d="M3374.487 2217.724c1.994-2.493 4.862-1.87 7.355-1.87h95.75c1.496 0 3.242-.499 4.987 1.87-36.405.125-72.186.125-108.092 0 .124.125 0 0 0 0z" fill="#097a4d"/><path d="M4492.815 2437.026c78.046-.25 140.134 61.465 140.259 139.51.124 76.675-55.979 140.758-139.885 141.63-79.168.874-141.256-60.466-141.63-138.886-.499-79.044 62.213-142.004 141.256-142.254z" fill="#fff"/><path d="M4510.893 2590.874c20.945 13.465 31.044 34.41 43.636 53.361 5.236 7.98 10.099 16.208 16.083 26.057-10.223.623-18.826 2.618-27.553 1.496-5.486-.623-9.85-3.99-12.842-8.727a124.817 124.817 0 01-6.233-11.346c-7.48-15.21-16.956-29.298-27.553-42.514-7.855-9.849-17.704-14.711-30.171-14.462-4.364.125-8.603.125-12.967 0-4.238-.124-6.109 1.746-5.984 5.985.125 5.984 0 11.968 0 17.953 0 13.963.125 27.927 0 41.89 0 9.85-.25 9.85-9.725 10.847-3.99.374-7.979 1.122-11.844.873-6.607-.374-9.849-3.865-9.475-10.348 3.242-54.483.499-108.84 1.372-163.324.124-8.353.748-9.1 9.1-9.225 23.564-.125 47.128-.125 70.816.124 8.602.125 17.205 1.496 25.558 3.616 18.078 4.737 29.423 16.332 33.537 34.41 4.115 17.828-.249 33.662-13.963 46.254-6.733 6.109-14.338 10.847-23.19 13.09-2.493.749-5.111 1.372-8.602 3.99z" fill="#626f77"/><path d="M4480.846 2514.324c4.24.25 11.595.374 18.826.873 5.61.374 11.22 1.496 16.083 4.613 8.727 5.486 12.468 13.465 11.72 23.564-.748 9.849-5.735 16.83-14.712 20.82-7.106 3.117-14.836 3.865-22.317 4.239-11.22.623-22.566.499-33.911.374-7.356-.125-8.603-1.247-8.603-8.852-.124-12.343-.249-24.56 0-36.903.125-7.48 1.247-8.478 8.852-8.728 7.107-.124 14.088 0 24.062 0z" fill="#fff"/></svg>